<?xml version="1.0" encoding="utf-8"?>
<!-- Generator: Adobe Illustrator 19.2.0, SVG Export Plug-In . SVG Version: 6.00 Build 0)  -->
<svg version="1.1" id="Layer_1" xmlns="http://www.w3.org/2000/svg" xmlns:xlink="http://www.w3.org/1999/xlink" x="0px" y="0px"
	 viewBox="0 0 522.467 90.592" enable-background="new 0 0 522.467 90.592" xml:space="preserve">
<g>
	<path fill="#FFFFFF" d="M191.105,21.224c8.566,0,15.498,5.69,15.498,14.908c0,3.924-1.831,6.932-4.839,8.895
		c3.334,1.961,5.492,5.164,5.492,9.48c0,9.416-6.931,15.17-15.497,15.17h-17.655c-3.925,0-6.539-2.615-6.539-6.539V27.763
		c0-3.924,2.614-6.539,6.539-6.539H191.105z M189.799,39.925c2.157,0,3.727-1.309,3.727-3.465c0-2.094-1.569-3.467-3.727-3.467
		h-9.156v6.932H189.799z M190.125,57.907c2.355,0,4.054-1.439,4.054-3.727c0-2.551-1.699-3.793-4.054-3.793h-9.482v7.52H190.125z"/>
	<path fill="#FFFFFF" d="M233.974,38.028c0-3.924,2.615-6.539,6.538-6.539c3.925,0,6.539,2.615,6.539,6.539v25.109
		c0,3.924-2.614,6.539-6.539,6.539c-2.615,0-4.707-1.176-5.754-3.139c-2.812,2.42-6.408,3.924-10.593,3.924
		c-10.986,0-14.778-7.52-14.778-18.637V38.028c0-3.924,2.615-6.539,6.539-6.539c3.924,0,6.537,2.615,6.537,6.539v13.209
		c0,3.924,2.355,6.344,5.102,6.344c3.466,0,6.408-3.008,6.408-6.801V38.028z"/>
	<path fill="#FFFFFF" d="M250.338,27.763c0-3.924,2.616-6.539,6.54-6.539c3.923,0,6.538,2.615,6.538,6.539v6.475
		c2.878-2.225,6.343-3.531,10.136-3.531c11.051,0,17.067,9.676,17.067,19.943c0,10.266-6.017,19.943-17.067,19.943
		c-4.446,0-8.108-1.504-11.051-3.924c-1.046,1.896-3.073,3.008-5.623,3.008c-3.924,0-6.54-2.615-6.54-6.539V27.763z M276.887,50.649
		c0-3.924-3.008-7.062-6.734-7.062c-3.728,0-6.736,3.139-6.736,7.062c0,3.924,3.008,7.062,6.736,7.062
		C273.879,57.712,276.887,54.573,276.887,50.649z"/>
	<path fill="#FFFFFF" d="M292.661,27.763c0-3.924,2.616-6.539,6.539-6.539c3.924,0,6.539,2.615,6.539,6.539v6.475
		c2.877-2.225,6.343-3.531,10.136-3.531c11.052,0,17.066,9.676,17.066,19.943c0,10.266-6.015,19.943-17.066,19.943
		c-4.447,0-8.108-1.504-11.051-3.924c-1.047,1.896-3.073,3.008-5.624,3.008c-3.923,0-6.539-2.615-6.539-6.539V27.763z
		 M319.21,50.649c0-3.924-3.008-7.062-6.734-7.062c-3.729,0-6.736,3.139-6.736,7.062c0,3.924,3.007,7.062,6.736,7.062
		C316.202,57.712,319.21,54.573,319.21,50.649z"/>
	<path fill="#FFFFFF" d="M334.984,27.763c0-3.924,2.616-6.539,6.539-6.539c3.924,0,6.54,2.615,6.54,6.539v35.506
		c0,3.924-2.616,6.539-6.54,6.539c-3.923,0-6.539-2.615-6.539-6.539V27.763z"/>
	<path fill="#FFFFFF" d="M384.263,53.396c3.139,2.354,4.248,5.951,0.785,10.332c-3.402,4.314-9.092,6.734-15.367,6.734
		c-11.051,0-19.814-8.893-19.814-19.812s8.764-19.814,19.814-19.814c10.004,0,17.852,6.277,17.852,13.93
		c0,3.791-2.748,6.277-6.541,6.277h-17.721c0.131,3.727,2.027,6.67,6.41,6.67c2.418,0,4.117-1.178,5.1-2.682
		c2.158-3.27,6.147-4.186,9.221-1.832L384.263,53.396z M373.733,43.456c-0.85-1.896-2.354-3.139-4.707-3.139
		c-1.766,0-3.4,0.916-4.514,3.139H373.733z"/>
	<path fill="#FFFFFF" d="M414.942,21.224c8.566,0,15.498,5.69,15.498,14.908c0,3.924-1.83,6.932-4.838,8.895
		c3.334,1.961,5.492,5.164,5.492,9.48c0,9.416-6.932,15.17-15.498,15.17h-17.654c-3.924,0-6.541-2.615-6.541-6.539V27.763
		c0-3.924,2.617-6.539,6.541-6.539H414.942z M413.636,39.925c2.158,0,3.727-1.309,3.727-3.465c0-2.094-1.568-3.467-3.727-3.467
		h-9.156v6.932H413.636z M413.962,57.907c2.355,0,4.055-1.439,4.055-3.727c0-2.551-1.699-3.793-4.055-3.793h-9.482v7.52H413.962z"/>
	<path fill="#FFFFFF" d="M472.458,63.138c0,3.924-2.615,6.539-6.539,6.539c-2.615,0-4.576-1.111-5.688-3.008
		c-2.879,2.42-6.605,3.924-10.986,3.924c-11.051,0-17.066-9.678-17.066-19.943c0-10.268,6.016-19.943,17.066-19.943
		c4.119,0,7.848,1.568,10.855,4.119c1.045-2.094,3.072-3.336,5.818-3.336c3.924,0,6.539,2.615,6.539,6.539V63.138z M452.645,57.712
		c3.729,0,6.736-3.139,6.736-7.062c0-3.924-3.008-7.062-6.736-7.062c-3.727,0-6.734,3.139-6.734,7.062
		C445.911,54.573,448.919,57.712,452.645,57.712z"/>
	<path fill="#FFFFFF" d="M475.71,27.763c0-3.924,2.617-6.539,6.541-6.539c3.922,0,6.537,2.615,6.537,6.539v35.506
		c0,3.924-2.615,6.539-6.537,6.539c-3.924,0-6.541-2.615-6.541-6.539V27.763z"/>
	<path fill="#FFFFFF" d="M492.011,27.763c0-3.924,2.615-6.539,6.539-6.539c3.924,0,6.539,2.615,6.539,6.539v35.506
		c0,3.924-2.615,6.539-6.539,6.539c-3.924,0-6.539-2.615-6.539-6.539V27.763z"/>
	<g>
		<g>
			<g>
				<path fill="#FFFFFF" d="M72.896,14.261c0.351,0.137,0.688,0.295,1.008,0.471l6.289-11.547c-0.807-0.438-1.646-0.834-2.524-1.174
					c-0.879-0.338-1.767-0.607-2.659-0.824l-3.082,12.77C72.251,14.04,72.575,14.138,72.896,14.261z"/>
				<path fill="#FFFFFF" d="M69.812,13.718L69.485,0.593c-1.872,0.049-3.717,0.346-5.489,0.869l3.709,12.578
					C68.385,13.843,69.092,13.733,69.812,13.718z"/>
				<path fill="#FFFFFF" d="M65.753,14.896L58.919,3.714c-1.577,0.963-3.034,2.129-4.324,3.488l9.49,9.029
					C64.583,15.712,65.145,15.265,65.753,14.896z"/>
			</g>
			<g>
				<path fill="#FFFFFF" d="M72.955,75.919c-0.304-0.223-0.587-0.461-0.851-0.717L63.04,84.73c0.666,0.633,1.375,1.23,2.136,1.787
					c0.762,0.555,1.548,1.045,2.354,1.484l6.283-11.537C73.521,76.3,73.234,76.122,72.955,75.919z"/>
				<path fill="#FFFFFF" d="M75.793,77.243l-3.08,12.762c1.82,0.438,3.68,0.629,5.524,0.58L77.91,77.478
					C77.204,77.491,76.492,77.415,75.793,77.243z"/>
				<path fill="#FFFFFF" d="M80.021,77.153l3.704,12.57c1.773-0.52,3.482-1.271,5.081-2.248l-6.83-11.178
					C81.359,76.671,80.702,76.956,80.021,77.153z"/>
			</g>
		</g>
		<g>
			<g>
				<path fill="#FFFFFF" d="M39.457,53.79c-3.787-0.518-5.674-0.805-9.446-1.443c-0.385,2.975-0.559,4.465-0.87,7.449
					c3.635,0.76,5.459,1.059,9.14,1.504c2.284,0.275,4.214-1.01,4.607-3.258C43.324,55.534,41.809,54.108,39.457,53.79z"/>
			</g>
			<g>
				<path fill="#FFFFFF" d="M41.595,36.317c-3.529-0.592-5.305-0.816-8.877-1.113c-0.508,2.721-0.745,4.084-1.194,6.812
					c3.664,0.436,5.491,0.686,9.135,1.25c2.145,0.334,3.871-0.695,4.129-2.84C45.033,38.347,43.674,36.667,41.595,36.317z"/>
			</g>
			<g>
				<g>
					<path fill="#FFFFFF" d="M38.583,10.243C17.275,10.243,0,27.519,0,48.827s17.275,38.582,38.583,38.582
						c21.309,0,38.583-17.273,38.583-38.582S59.892,10.243,38.583,10.243z M56.631,40.378c-0.531,6.396-4.701,9.773-4.701,9.773
						c-0.063,0.512,3.799,5.334,2.521,10.703c-1.913,8.045-9.23,12.736-16.732,12.291c-6.183-0.363-9.199-1.082-15.075-3.57
						c-3.263-1.383-5.687-5.019-5.843-8.508c0.224-11.084,1.508-19.906,4.448-30.596c1.144-3.297,4.508-6.094,8.029-6.49
						c6.106-0.684,9.093-0.535,14.91,0.75C51.519,26.349,57.303,32.228,56.631,40.378z"/>
				</g>
			</g>
		</g>
		<g>
			<g>
				<path fill="#FFFFFF" d="M110.041,27.714c-3.148,0.996-4.698,1.559-7.749,2.81c-1.796,0.738-2.671,2.527-2.023,4.35
					c0.673,1.875,2.436,2.449,4.296,1.711c3.157-1.248,4.747-1.848,7.95-2.986C111.551,31.237,111.057,30.06,110.041,27.714z"/>
			</g>
			<g>
				<path fill="#FFFFFF" d="M107.805,45.808c-2.048,0.768-3.116,2.359-2.21,4.525c0.817,1.943,2.813,2.705,4.811,1.992
					c3.215-1.15,4.793-1.791,7.904-3.215c-0.895-2.623-1.356-3.928-2.314-6.525C112.739,43.927,111.103,44.571,107.805,45.808z"/>
			</g>
			<g>
				<path fill="#FFFFFF" d="M105.64,2.896c-14.503,0-27.13,8.004-33.721,19.832c5.64,7.193,9.011,16.25,9.011,26.1
					c0,6.541-1.485,12.734-4.134,18.264c7.067,7.953,17.366,12.969,28.844,12.969c21.308,0,38.583-17.274,38.583-38.582
					C144.223,20.169,126.947,2.896,105.64,2.896z M125.529,56.782c-4.768,3.436-6.703,4.498-12.186,6.086
					c-6.65,1.928-14.188-0.801-17.561-7.648c-2.251-4.572,0.228-9.695,0.066-10.143c0,0-4.44-2.189-6.231-7.836
					c-2.282-7.195,1.711-13.664,7.967-16.611c4.964-2.342,6.986-2.885,12.615-3.514c3.243-0.361,6.842,1.469,8.547,4.203
					c4.84,9.018,7.808,16.693,10.285,26.619C129.605,51.107,128.176,54.874,125.529,56.782z"/>
			</g>
		</g>
	</g>
	<g>
		<path fill="#FFFFFF" d="M148.856,7.295c0,4.027-3.268,7.295-7.257,7.295c-4.008,0-7.276-3.286-7.276-7.295
			c0-3.913,3.154-7.295,7.314-7.295C145.664,0,148.856,3.363,148.856,7.295z M135.9,7.295c0,3.229,2.583,5.832,5.699,5.832
			c3.116,0,5.68-2.564,5.68-5.832c0-3.134-2.451-5.832-5.661-5.832C138.388,1.463,135.9,4.104,135.9,7.295z M141.903,3.173
			c1.558,0,2.963,0.646,2.963,2.279c0,0.665-0.228,1.463-1.311,1.957c0.589,0.247,1.083,0.646,1.159,1.881
			c0.095,1.405,0.095,1.558,0.247,1.976h-1.957c-0.152-0.285-0.228-1.672-0.266-1.938c-0.057-0.456-0.171-1.178-1.444-1.178h-0.798
			v3.115h-2.014V3.173H141.903z M140.497,4.56v2.279h0.969c0.418,0,1.387,0,1.387-1.234c0-1.025-0.855-1.045-1.273-1.045H140.497z"
			/>
	</g>
	<g>
		<path fill="#FFFFFF" d="M522.467,24.366c0,4.027-3.268,7.295-7.257,7.295c-4.008,0-7.276-3.286-7.276-7.295
			c0-3.913,3.154-7.295,7.314-7.295C519.275,17.071,522.467,20.434,522.467,24.366z M509.511,24.366
			c0,3.229,2.583,5.832,5.699,5.832c3.116,0,5.68-2.564,5.68-5.832c0-3.134-2.451-5.832-5.661-5.832
			C511.999,18.534,509.511,21.174,509.511,24.366z M515.514,20.244c1.558,0,2.963,0.646,2.963,2.279
			c0,0.665-0.228,1.463-1.311,1.957c0.589,0.247,1.083,0.646,1.159,1.881c0.095,1.405,0.095,1.558,0.247,1.976h-1.957
			c-0.152-0.285-0.228-1.672-0.266-1.938c-0.057-0.456-0.171-1.178-1.444-1.178h-0.798v3.115h-2.014v-8.093H515.514z M514.108,21.63
			v2.279h0.969c0.418,0,1.387,0,1.387-1.234c0-1.025-0.855-1.045-1.273-1.045H514.108z"/>
	</g>
</g>
</svg>
